<svg width="43" height="43" viewBox="0 0 43 43" fill="none" xmlns="http://www.w3.org/2000/svg">
<path d="M35.1167 37.625L23.8292 26.3375C22.9333 27.0542 21.9031 27.6215 20.7385 28.0396C19.574 28.4576 18.3347 28.6667 17.0208 28.6667C13.766 28.6667 11.0116 27.5397 8.75767 25.2858C6.50256 23.0307 5.375 20.2757 5.375 17.0208C5.375 13.766 6.50256 11.011 8.75767 8.75588C11.0116 6.50196 13.766 5.375 17.0208 5.375C20.2757 5.375 23.0307 6.50196 25.2858 8.75588C27.5397 11.011 28.6667 13.766 28.6667 17.0208C28.6667 18.3347 28.4576 19.574 28.0396 20.7385C27.6215 21.9031 27.0542 22.9333 26.3375 23.8292L37.625 35.1167L35.1167 37.625ZM17.0208 25.0833C19.2604 25.0833 21.1644 24.2998 22.7327 22.7327C24.2998 21.1644 25.0833 19.2604 25.0833 17.0208C25.0833 14.7812 24.2998 12.8773 22.7327 11.309C21.1644 9.74189 19.2604 8.95833 17.0208 8.95833C14.7812 8.95833 12.8773 9.74189 11.309 11.309C9.74189 12.8773 8.95833 14.7812 8.95833 17.0208C8.95833 19.2604 9.74189 21.1644 11.309 22.7327C12.8773 24.2998 14.7812 25.0833 17.0208 25.0833Z" fill="#20595C"/>
</svg>
