<svg width="33" height="33" viewBox="0 0 33 33" fill="none" xmlns="http://www.w3.org/2000/svg">
<path d="M30.1167 32.625L18.8292 21.3375C17.9333 22.0542 16.9031 22.6215 15.7385 23.0396C14.574 23.4576 13.3347 23.6667 12.0208 23.6667C8.76597 23.6667 6.01158 22.5397 3.75767 20.2858C1.50256 18.0307 0.375 15.2757 0.375 12.0208C0.375 8.76597 1.50256 6.01099 3.75767 3.75588C6.01158 1.50196 8.76597 0.375 12.0208 0.375C15.2757 0.375 18.0307 1.50196 20.2858 3.75588C22.5397 6.01099 23.6667 8.76597 23.6667 12.0208C23.6667 13.3347 23.4576 14.574 23.0396 15.7385C22.6215 16.9031 22.0542 17.9333 21.3375 18.8292L32.625 30.1167L30.1167 32.625ZM12.0208 20.0833C14.2604 20.0833 16.1644 19.2998 17.7327 17.7327C19.2998 16.1644 20.0833 14.2604 20.0833 12.0208C20.0833 9.78125 19.2998 7.87731 17.7327 6.309C16.1644 4.74189 14.2604 3.95833 12.0208 3.95833C9.78125 3.95833 7.87731 4.74189 6.309 6.309C4.74189 7.87731 3.95833 9.78125 3.95833 12.0208C3.95833 14.2604 4.74189 16.1644 6.309 17.7327C7.87731 19.2998 9.78125 20.0833 12.0208 20.0833Z" fill="white"/>
</svg>
