<svg width="84" height="74" viewBox="0 0 84 74" fill="none" xmlns="http://www.w3.org/2000/svg">
<path d="M79.3333 9.25H74.6667V4.625C74.6667 2.08125 72.5667 0 70 0H4.66667C2.1 0 0 2.08125 0 4.625V60.125C0 62.6688 2.1 64.75 4.66667 64.75H9.33333V69.375C9.33333 71.9187 11.4333 74 14 74H79.3333C81.9 74 84 71.9187 84 69.375V13.875C84 11.3313 81.9 9.25 79.3333 9.25ZM9.33333 13.875V60.125H4.676L4.66667 60.1157V4.63425L4.676 4.625H69.9907L70 4.63425V9.25H14C11.4333 9.25 9.33333 11.3313 9.33333 13.875ZM79.3333 69.3658L79.324 69.375H14.0093L14 69.3658V13.8843L14.0093 13.875H79.324L79.3333 13.8843V69.3658Z" fill="#F8F8F8"/>
</svg>
